<svg width="11" height="19" viewBox="0 0 11 19" fill="none" xmlns="http://www.w3.org/2000/svg">
<path d="M8.82028 18.624L0.278801 10.2018C0.177419 10.1016 0.105775 9.99296 0.0638707 9.87599C0.02129 9.75902 0 9.63369 0 9.5C0 9.36631 0.02129 9.24098 0.0638707 9.12401C0.105775 9.00704 0.177419 8.89842 0.278801 8.79815L8.82028 0.350923C9.05684 0.116974 9.35254 0 9.70737 0C10.0622 0 10.3664 0.12533 10.6198 0.375989C10.8733 0.626649 11 0.919085 11 1.2533C11 1.58751 10.8733 1.87995 10.6198 2.13061L3.1682 9.5L10.6198 16.8694C10.8564 17.1033 10.9747 17.3914 10.9747 17.7337C10.9747 18.0766 10.8479 18.3734 10.5945 18.624C10.341 18.8747 10.0453 19 9.70737 19C9.36943 19 9.07373 18.8747 8.82028 18.624Z" fill="#363636"/>
</svg>
