<svg width="17" height="24" viewBox="0 0 17 24" fill="none" xmlns="http://www.w3.org/2000/svg">
<path d="M8.16667 0C3.65167 0 0 3.65167 0 8.16667C0 14.2917 8.16667 23.3333 8.16667 23.3333C8.16667 23.3333 16.3333 14.2917 16.3333 8.16667C16.3333 3.65167 12.6817 0 8.16667 0ZM8.16667 11.0833C7.39312 11.0833 6.65125 10.776 6.10427 10.2291C5.55729 9.68208 5.25 8.94022 5.25 8.16667C5.25 7.39312 5.55729 6.65125 6.10427 6.10427C6.65125 5.55729 7.39312 5.25 8.16667 5.25C8.94022 5.25 9.68208 5.55729 10.2291 6.10427C10.776 6.65125 11.0833 7.39312 11.0833 8.16667C11.0833 8.94022 10.776 9.68208 10.2291 10.2291C9.68208 10.776 8.94022 11.0833 8.16667 11.0833Z" fill="#163C69"/>
</svg>
