<svg width="25" height="30" viewBox="0 0 25 30" fill="none" xmlns="http://www.w3.org/2000/svg">
<path d="M1.70833 29.375V24.6729C1.24583 24.159 0.873261 23.5871 0.590623 22.957C0.307984 22.328 0.166664 21.641 0.166664 20.8958V6.25C0.166664 4.11736 1.1559 2.55617 3.13437 1.56642C5.11284 0.577693 8.23472 0.0833321 12.5 0.0833321C16.9194 0.0833321 20.0799 0.558679 21.9812 1.50937C23.8826 2.46007 24.8333 4.04028 24.8333 6.25V20.8958C24.8333 21.641 24.692 22.328 24.4094 22.957C24.1267 23.5871 23.7542 24.159 23.2917 24.6729V29.375H18.6667V26.2917H6.33333V29.375H1.70833ZM3.25 12.4167H21.75V7.79167H3.25V12.4167ZM7.10416 21.6667C7.74652 21.6667 8.29228 21.4416 8.74141 20.9914C9.19158 20.5423 9.41666 19.9965 9.41666 19.3542C9.41666 18.7118 9.19158 18.1661 8.74141 17.7169C8.29228 17.2667 7.74652 17.0417 7.10416 17.0417C6.4618 17.0417 5.91605 17.2667 5.46691 17.7169C5.01675 18.1661 4.79166 18.7118 4.79166 19.3542C4.79166 19.9965 5.01675 20.5423 5.46691 20.9914C5.91605 21.4416 6.4618 21.6667 7.10416 21.6667ZM17.8958 21.6667C18.5382 21.6667 19.0839 21.4416 19.5331 20.9914C19.9832 20.5423 20.2083 19.9965 20.2083 19.3542C20.2083 18.7118 19.9832 18.1661 19.5331 17.7169C19.0839 17.2667 18.5382 17.0417 17.8958 17.0417C17.2535 17.0417 16.7077 17.2667 16.2586 17.7169C15.8084 18.1661 15.5833 18.7118 15.5833 19.3542C15.5833 19.9965 15.8084 20.5423 16.2586 20.9914C16.7077 21.4416 17.2535 21.6667 17.8958 21.6667Z" fill="#163C69"/>
</svg>
