<svg width="15" height="17" viewBox="0 0 19 23" fill="none" xmlns="http://www.w3.org/2000/svg">
<path d="M9.5 11.7197C10.1531 11.7197 10.7124 11.49 11.1779 11.0306C11.6426 10.572 11.875 10.0204 11.875 9.3758C11.875 8.73121 11.6426 8.17921 11.1779 7.7198C10.7124 7.26116 10.1531 7.03185 9.5 7.03185C8.84688 7.03185 8.28796 7.26116 7.82325 7.7198C7.35775 8.17921 7.125 8.73121 7.125 9.3758C7.125 10.0204 7.35775 10.572 7.82325 11.0306C8.28796 11.49 8.84688 11.7197 9.5 11.7197ZM9.5 23C9.34167 23 9.18333 22.9707 9.025 22.9121C8.86667 22.8535 8.72812 22.7754 8.60938 22.6777C5.71979 20.158 3.5625 17.8191 2.1375 15.6611C0.7125 13.5023 0 11.4854 0 9.61019C0 6.68025 0.955146 4.34607 2.86544 2.60764C4.77494 0.869214 6.98646 0 9.5 0C12.0135 0 14.2251 0.869214 16.1346 2.60764C18.0449 4.34607 19 6.68025 19 9.61019C19 11.4854 18.2875 13.5023 16.8625 15.6611C15.4375 17.8191 13.2802 20.158 10.3906 22.6777C10.2719 22.7754 10.1333 22.8535 9.975 22.9121C9.81667 22.9707 9.65833 23 9.5 23Z" fill="#FA5656"/>
</svg>
