<svg width="20" height="20" viewBox="0 0 34 34" fill="none" xmlns="http://www.w3.org/2000/svg">
<path d="M17 34C16.5601 34 16.1917 33.8515 15.8946 33.5544C15.5965 33.2563 15.4475 32.8874 15.4475 32.4475V30.895C12.2131 30.5327 9.43823 29.1939 7.12292 26.8786C4.80658 24.5623 3.46728 21.7869 3.10502 18.5525H1.55251C1.11263 18.5525 0.743653 18.4035 0.445571 18.1054C0.148524 17.8083 0 17.4399 0 17C0 16.5601 0.148524 16.1911 0.445571 15.8931C0.743653 15.596 1.11263 15.4475 1.55251 15.4475H3.10502C3.46728 12.2131 4.80658 9.43772 7.12292 7.12137C9.43823 4.80606 12.2131 3.46728 15.4475 3.10502V1.55251C15.4475 1.11263 15.5965 0.743653 15.8946 0.445571C16.1917 0.148524 16.5601 0 17 0C17.4399 0 17.8089 0.148524 18.1069 0.445571C18.404 0.743653 18.5525 1.11263 18.5525 1.55251V3.10502C21.7869 3.46728 24.5623 4.80606 26.8786 7.12137C29.1939 9.43772 30.5327 12.2131 30.895 15.4475H32.4475C32.8874 15.4475 33.2563 15.596 33.5544 15.8931C33.8515 16.1911 34 16.5601 34 17C34 17.4399 33.8515 17.8083 33.5544 18.1054C33.2563 18.4035 32.8874 18.5525 32.4475 18.5525H30.895C30.5327 21.7869 29.1939 24.5623 26.8786 26.8786C24.5623 29.1939 21.7869 30.5327 18.5525 30.895V32.4475C18.5525 32.8874 18.404 33.2563 18.1069 33.5544C17.8089 33.8515 17.4399 34 17 34ZM17 27.8676C20.0015 27.8676 22.5632 26.8067 24.6849 24.6849C26.8067 22.5632 27.8676 20.0015 27.8676 17C27.8676 13.9985 26.8067 11.4368 24.6849 9.31507C22.5632 7.1933 20.0015 6.13242 17 6.13242C13.9985 6.13242 11.4368 7.1933 9.31507 9.31507C7.1933 11.4368 6.13242 13.9985 6.13242 17C6.13242 20.0015 7.1933 22.5632 9.31507 24.6849C11.4368 26.8067 13.9985 27.8676 17 27.8676ZM17 23.21C15.2922 23.21 13.8303 22.602 12.6142 21.3858C11.398 20.1697 10.79 18.7078 10.79 17C10.79 15.2922 11.398 13.8303 12.6142 12.6142C13.8303 11.398 15.2922 10.79 17 10.79C18.7078 10.79 20.1697 11.398 21.3858 12.6142C22.602 13.8303 23.21 15.2922 23.21 17C23.21 18.7078 22.602 20.1697 21.3858 21.3858C20.1697 22.602 18.7078 23.21 17 23.21Z" fill="#636363"/>
</svg>
